<mxfile host="app.diagrams.net" modified="2023-09-04T02:23:00.825Z" agent="Mozilla/5.0 (Windows NT 10.0; Win64; x64) AppleWebKit/537.36 (KHTML, like Gecko) Chrome/116.0.0.0 Safari/537.36" version="21.6.8" etag="cq65DsK-B03xWtlUGrZ-" type="github">
  <diagram name="Page-1" id="Gy_cVocwL_C7a8g2-S-h">
    <mxGraphModel>
      <root>
        <mxCell id="0" />
        <mxCell id="1" parent="0" />
      </root>
    </mxGraphModel>
  </diagram>
</mxfile>
